<svg xmlns="http://www.w3.org/2000/svg" id="Layer_2" data-name="Layer 2" viewBox="0 0 267.57 64.7"><defs><style>      .cls-1 {        fill: #fff;      }      .cls-2 {        fill: #139cd5;      }    </style></defs><g id="Layer_1-2" data-name="Layer 1"><g><g><path class="cls-1" d="M78.64,1.25c-1.55,0-2.81,1.13-2.81,2.53v.65c0,1.39,1.26,2.53,2.81,2.53s2.81-1.13,2.81-2.53v-.65c0-1.39-1.26-2.53-2.81-2.53Z"></path><rect class="cls-1" x="75.82" y="9.72" width="5.63" height="30.14"></rect><path class="cls-1" d="M101.73,14.77c2.28,0,4.33,.83,5.47,2.21l1.68,2.02,4.51-3.02-1.68-2.02c-2.27-2.73-5.82-4.24-10-4.24-1.93,0-3.96,.45-5.73,1.26-1.71,.79-3.23,1.91-4.54,3.33-2.54,2.77-4,6.6-4,10.5s1.46,7.69,4,10.46c1.3,1.42,2.82,2.54,4.54,3.33,1.82,.84,3.74,1.26,5.73,1.26,4.11,0,7.76-1.54,10-4.24l1.68-2.02-4.51-3.02-1.68,2.02c-1.15,1.38-3.19,2.2-5.47,2.21-4.85,0-8.65-4.4-8.65-10s3.8-10.04,8.65-10.04Z"></path><path class="cls-1" d="M135.76,32.6c-1.2,1.45-3.28,2.21-5.99,2.21-4.18,0-7.77-3.45-8.54-8.19v-.07c-.02-.05-.04-.24,.03-.38,0,0,0,0,0,0h7.23c3.59,0,6.67-.83,8.9-2.4,2.18-1.54,3.43-3.74,3.43-6.04s-1.1-4.25-3.11-5.73c-2.04-1.51-4.73-2.27-7.99-2.27-1.97,0-3.9,.43-5.72,1.27-1.71,.79-3.24,1.91-4.54,3.33-2.59,2.82-4.01,6.54-4.01,10.47,0,2.11,.37,3.46,.37,3.46,.59,2.64,1.83,5.07,3.61,7.01,2.71,2.97,6.37,4.6,10.33,4.6,5.76,0,8.89-2.31,10.5-4.24l1.68-2.02-4.51-3.02-1.68,2.02Zm-1.84-12.81c-1.23,.87-3.1,1.32-5.42,1.32h-6.8c1.31-3.78,4.49-6.34,8.06-6.34,3.74,0,5.45,1.53,5.45,2.95,0,.76-.44,1.48-1.28,2.07Z"></path><path class="cls-1" d="M149.73,13.25c-2.29,2.22-3.55,5.16-3.55,8.28v18.33h5.63V21.53c0-3.73,3.03-6.76,6.76-6.76h4.06v-5.05h-4.06c-3.35,0-6.49,1.25-8.84,3.53Z"></path><path class="cls-1" d="M172.8,10.25V0h-5.63V28.04c0,3.12,1.27,6.06,3.56,8.29,2.35,2.28,5.5,3.53,8.85,3.53h1.49v-5.05h-1.49c-3.74,0-6.78-3.04-6.78-6.77V15.49s.01-.08,.03-.13c.08-.03,.28-.08,.67-.08h7.57v-5.05h-7.57c-.24,0-.47,0-.7,.02Z"></path><path class="cls-1" d="M204.38,32.6c-1.2,1.45-3.27,2.21-5.99,2.21-4.18,0-7.77-3.45-8.54-8.2l-.02-.08s-.02-.23,.05-.36c0,0,0,0,0,0h7.23c3.59,0,6.67-.83,8.9-2.4,2.18-1.54,3.43-3.74,3.43-6.04s-1.11-4.25-3.12-5.73c-2.04-1.51-4.73-2.27-7.99-2.27-1.97,0-3.9,.43-5.72,1.27-1.71,.79-3.24,1.91-4.54,3.33-2.58,2.82-4.01,6.54-4.01,10.47,0,1.96,.32,3.25,.37,3.46,.59,2.64,1.83,5.07,3.6,7.01,2.71,2.97,6.38,4.6,10.33,4.6,5.76,0,8.89-2.31,10.5-4.24l1.69-2.02-4.51-3.02-1.69,2.02Zm-1.84-12.81c-1.21,.85-3.13,1.32-5.42,1.32h-6.8c1.31-3.78,4.49-6.34,8.06-6.34,3.74,0,5.45,1.53,5.45,2.95,0,.76-.44,1.48-1.28,2.07Z"></path><path class="cls-1" d="M226.64,14.77c2.28,0,4.33,.83,5.47,2.21l1.68,2.02,4.51-3.02-1.68-2.02c-2.27-2.73-5.82-4.24-10-4.24-1.93,0-3.96,.45-5.72,1.26-1.71,.79-3.24,1.91-4.54,3.33-2.54,2.77-4,6.6-4,10.5s1.46,7.68,4,10.46c1.3,1.42,2.83,2.54,4.53,3.33,1.82,.84,3.74,1.26,5.73,1.26,4.11,0,7.76-1.54,10-4.24l1.68-2.02-4.51-3.02-1.68,2.02c-1.15,1.38-3.19,2.2-5.47,2.21-4.85,0-8.66-4.4-8.66-10s3.8-10.04,8.65-10.04Z"></path><path class="cls-1" d="M264.01,13.62c-2.34-2.27-5.47-3.52-8.82-3.52h-6.47s-.12,0-.18-.02c-.03-.07-.1-.25-.1-.62V0h-5.62V39.86h5.62V15.15c.18,0,.3,0,.33,0h6.42c3.72,0,6.75,3.02,6.75,6.74v17.96h5.63V21.9c0-3.12-1.26-6.06-3.56-8.28Z"></path></g><g><path class="cls-2" d="M50.53,27v15.15l-13.12-7.57-5.83,3.37,16.03,9.25-16.51,9.53v-18.52c-.09,.04-.17,.08-.24,.12-.08,.04-.16,.08-.23,.11-.14,.06-.26,.1-.36,.13-.67,.24-1.37,.35-2.06,.35s-1.39-.12-2.05-.35c-.11-.04-.23-.08-.34-.13-.07-.03-.15-.06-.22-.1-.09-.04-.2-.09-.32-.16v18.54s-16.52-9.54-16.52-9.54l16.04-9.27-5.83-3.37-13.12,7.59v-15.15L0,23.62v23.57s0,.06,0,.09c0,.06,0,.13,0,.18,0,.07,.02,.14,.03,.21,.01,.06,.02,.13,.04,.19,.01,.05,.03,.11,.04,.16,.02,.06,.04,.13,.07,.19,.02,.06,.05,.12,.07,.18,.03,.05,.05,.11,.08,.16,.01,.03,.02,.06,.04,.09,.02,.04,.05,.07,.07,.11,.03,.04,.05,.08,.08,.12,0,0,0,0,0,.01,.02,.02,.03,.05,.05,.08,.07,.09,.15,.18,.23,.26,0,.01,.02,.02,.03,.03,.03,.02,.06,.05,.08,.07,.03,.03,.06,.05,.09,.08,.07,.06,.14,.11,.21,.17,.03,.02,.07,.04,.1,.07,.03,.02,.05,.04,.08,.05,0,0,.02,.01,.03,.02l25.26,14.59s0,0,0,0c.09,.05,.19,.1,.29,.14,.02,0,.04,.02,.06,.03,.06,.02,.12,.04,.17,.06,.1,.03,.2,.06,.31,.09,.03,0,.06,.01,.1,.02,.17,.03,.35,.05,.52,.05h.02c.17,0,.33-.02,.5-.05,.05,0,.1-.02,.15-.03,.1-.02,.2-.06,.3-.09,.05-.02,.09-.03,.14-.05,.05-.02,.1-.05,.16-.08,.06-.03,.13-.06,.2-.09,0,0,0,0,0,0l25.24-14.57s0,0,.01,0h.01s.01-.02,.02-.02c.03-.02,.06-.04,.1-.06,.03-.02,.06-.04,.1-.06,.07-.05,.15-.11,.21-.17,.03-.03,.06-.05,.09-.08,.03-.03,.06-.05,.09-.08,0,0,.01-.01,.02-.02,.09-.09,.17-.18,.24-.28,.01-.02,.03-.04,.04-.07,0,0,0-.02,.01-.02,.03-.04,.06-.08,.08-.12,.02-.04,.05-.07,.07-.11,.02-.03,.03-.06,.04-.09,.03-.05,.06-.11,.08-.16,.03-.06,.05-.12,.07-.19,.02-.06,.05-.13,.07-.19,.02-.05,.03-.11,.04-.16,.01-.06,.03-.13,.04-.19,.01-.07,.02-.13,.03-.2,0-.06,0-.12,.01-.18,0-.03,0-.06,0-.09V23.62l-5.83,3.37Z"></path><path class="cls-2" d="M.07,18.58c.02,.09,.03,.19,.06,.27,.03,.09,.06,.17,.09,.25,.04,.1,.08,.19,.13,.29,.01,.03,.02,.06,.04,.09,.05,.09,.11,.17,.16,.25,.02,.02,.03,.05,.05,.07,.1,.14,.22,.26,.34,.37,.03,.03,.06,.05,.09,.08,.13,.11,.26,.21,.41,.29,0,0,.01,.01,.02,.01h.02s0,.01,0,.01l25.27,14.57s0,0,0,0c.09,.05,.18,.09,.28,.14,.02,.01,.05,.02,.07,.03,.04,.02,.09,.03,.13,.04,.32,.11,.64,.17,.97,.17h0c.33,0,.66-.06,.99-.18,.04-.01,.08-.02,.12-.04,.03-.01,.07-.03,.1-.05,.08-.04,.16-.08,.24-.12,0,0,0,0,0,0l25.22-14.57h.02s.02-.03,.02-.03c.14-.08,.27-.18,.4-.28,.03-.03,.06-.05,.09-.08,.12-.11,.24-.23,.34-.37,.02-.02,.03-.05,.05-.08,.05-.08,.11-.15,.16-.24,.02-.03,.03-.06,.04-.09,.05-.09,.09-.19,.13-.29,.03-.08,.07-.17,.09-.25,.03-.09,.05-.18,.06-.27,.02-.1,.04-.19,.05-.28,0-.09,0-.19,0-.28s0-.19,0-.28c0-.09-.03-.18-.05-.27-.02-.1-.04-.19-.07-.28-.02-.08-.06-.16-.09-.24-.04-.1-.08-.2-.13-.3-.01-.03-.02-.06-.04-.09-.05-.08-.1-.16-.16-.23-.02-.03-.03-.06-.06-.09-.1-.13-.21-.25-.33-.36-.03-.03-.07-.06-.1-.09-.12-.1-.24-.19-.37-.27-.02,0-.03-.02-.04-.03l-4.85-2.8L29.64,.91s-.06-.02-.09-.04c-.06-.03-.12-.06-.18-.09-.05-.03-.11-.05-.16-.07-.07-.02-.13-.05-.2-.07-.05-.02-.11-.03-.17-.05-.06-.01-.12-.02-.18-.04-.07-.01-.13-.02-.2-.03-.06,0-.13,0-.19-.01-.03,0-.07,0-.1,0s-.06,0-.1,0c-.06,0-.12,0-.18,.01-.07,0-.13,.02-.2,.03-.07,.01-.14,.02-.21,.04-.05,.01-.1,.03-.14,.04-.06,.02-.12,.04-.18,.06-.07,.02-.14,.05-.21,.09-.05,.02-.09,.05-.14,.07-.03,.02-.06,.02-.09,.04L6.31,12.69,1.49,15.47s-.02,.01-.03,.01h0s0,0,0,0c-.15,.09-.29,.19-.43,.3-.03,.02-.05,.05-.08,.07-.13,.12-.24,.24-.35,.38-.02,.02-.03,.04-.04,.06-.06,.08-.12,.16-.17,.25-.02,.03-.02,.06-.04,.09-.05,.09-.09,.19-.13,.29-.04,.09-.07,.17-.1,.25-.03,.09-.04,.18-.06,.27-.02,.1-.04,.19-.05,.29,0,.09,0,.18,0,.27s0,.19,0,.28c0,.09,.03,.19,.05,.28Zm12.08-2.52l13.11-7.57v15.13s2.94,1.7,2.94,1.7l2.89-1.67V8.48s13.13,7.58,13.13,7.58l3.4,1.96-19.41,11.22L8.75,18.02l3.4-1.96Z"></path></g><g><path class="cls-1" d="M81.52,60.93c-.41,.09-.89,.14-1.44,.14-3.46,0-4.36-1.4-4.36-5.32,0-3.63,1.32-4.91,4.36-4.91,2.76,0,4.28,1.38,4.28,4.95,0,2.62-.41,4.19-1.93,4.87l1.2,1.9-.85,.37-1.25-2Zm-1.44-.57c2.84,0,3.32-1.51,3.32-4.58s-1.27-4.24-3.32-4.24c-2.42,0-3.4,.97-3.4,4.2s.57,4.62,3.4,4.62Z"></path><path class="cls-1" d="M93.84,60.48c-1.1,.42-1.97,.62-2.77,.62-2.28,0-3.1-1.13-3.1-3.54v-3.73h.98v3.73c0,2.05,.53,2.9,2.12,2.9,.6,0,1.36-.2,1.82-.35v-6.28h.95v6.65Z"></path><path class="cls-1" d="M97.51,53.87c.84-.09,1.76-.19,2.56-.19,1.71,0,2.5,.8,2.5,2.27v4.53c-.86,.28-1.99,.6-3.42,.6-1.34,0-2.19-.74-2.19-2.13,0-1.22,.67-1.95,2.35-2.1l2.32-.22v-.7c0-1.12-.52-1.58-1.54-1.58-.7,0-1.58,.08-2.44,.17l-.13-.66Zm4.11,3.42l-2.22,.19c-1.1,.1-1.47,.63-1.47,1.47,0,.91,.47,1.47,1.24,1.48,.93,0,1.88-.22,2.44-.38v-2.77Z"></path><path class="cls-1" d="M106.01,50.96h.95v10h-.95v-10Z"></path><path class="cls-1" d="M110.4,51.03h.95v.97h-.95v-.97Zm0,2.79h.95v7.14h-.95v-7.14Z"></path><path class="cls-1" d="M116.19,51.99v1.84h1.65v.64h-1.65v4.22c0,1.41,.11,1.75,.72,1.76,.02,0,.05,0,.08,0,.19,0,.49-.04,.85-.14l-.11,.65c-.42,.08-.71,.11-.92,.11-1.32,0-1.56-.63-1.56-2.39v-4.22h-1.49v-.64h1.49v-1.84h.95Z"></path><path class="cls-1" d="M126.27,53.81l-3.39,9.48h-.97l.84-2.34h-.49l-2.51-7.14h.98l2.16,6.24h.2l2.18-6.24h.98Z"></path><path class="cls-1" d="M142.99,60.77c-.19,.03-1.83,.31-3.12,.31-3.4,0-4.11-1.97-4.11-5.09s.59-5.16,4.11-5.16c1.53,0,2.92,.26,3.12,.29l-.07,.73c-.24-.04-1.78-.31-3.04-.31-2.77,0-3.12,1.7-3.12,4.45s.41,4.37,3.12,4.37c1.11,0,2.82-.28,3.04-.31l.07,.72Z"></path><path class="cls-1" d="M147.29,54.03c.47-.15,1.24-.35,2.05-.35,2.3,0,2.87,1.13,2.87,3.55v3.73h-.98v-3.73c0-2.06-.32-2.9-1.89-2.9-.8,0-1.57,.2-2.05,.35v6.28h-.95v-9.99h.95v3.06Z"></path><path class="cls-1" d="M155.63,51.03h.95v.97h-.95v-.97Zm0,2.79h.95v7.14h-.95v-7.14Z"></path><path class="cls-1" d="M160.02,50.96h.95v10h-.95v-10Z"></path><path class="cls-1" d="M164.41,50.96h.95v10h-.95v-10Z"></path><path class="cls-1" d="M174.39,60.67c-.66,.15-1.87,.41-2.79,.41-2.5-.01-3.15-1.42-3.15-3.7,0-2.8,1.17-3.7,3.07-3.7,2.05,0,3.12,.99,3.12,3.44v.56h-5.21c.01,1.81,.54,2.76,2.18,2.76,.79,0,2.07-.27,2.65-.4l.12,.63Zm-.73-3.64c-.01-2-.66-2.71-2.14-2.71s-2.07,.72-2.09,2.71h4.22Z"></path><path class="cls-1" d="M182.37,50.96h.97v10.02c-.66,.05-1.38,.1-2.1,.1-3.07,0-3.78-1.24-3.78-3.86,0-2.42,.57-3.55,2.87-3.55,.8,0,1.58,.2,2.04,.35v-3.07Zm0,3.71c-.47-.15-1.24-.35-2.04-.35-1.57,0-1.89,.87-1.89,2.93s.36,3.16,2.72,3.17c.31,0,.84-.02,1.22-.04v-5.71Z"></path><path class="cls-1" d="M194.93,57.37v3.58h-.96v-10h4.2c2.39,0,3.45,.99,3.45,3.06s-1.05,3.35-3.45,3.35h-3.24Zm3.24-.71c1.76,0,2.45-1,2.45-2.64s-.68-2.35-2.45-2.35h-3.24v4.99h3.24Z"></path><path class="cls-1" d="M204.78,53.87c.84-.09,1.76-.19,2.57-.19,1.71,0,2.49,.8,2.49,2.27v4.53c-.86,.28-1.99,.6-3.42,.6-1.34,0-2.19-.74-2.19-2.13,0-1.22,.68-1.95,2.35-2.1l2.32-.22v-.7c0-1.12-.52-1.58-1.55-1.58-.7,0-1.58,.08-2.44,.17l-.13-.66Zm4.11,3.42l-2.22,.19c-1.1,.1-1.47,.63-1.47,1.47,0,.91,.47,1.47,1.24,1.48,.93,0,1.88-.22,2.44-.38v-2.77Z"></path><path class="cls-1" d="M218.27,60.78c-.17,.03-1.35,.27-2.02,.3-2.67,.11-3.31-.99-3.31-3.7s.64-3.83,3.31-3.71c.66,.03,1.86,.27,2.02,.3l-.03,.59c-.13,.01-1.41-.24-2.01-.26-1.96-.09-2.32,.82-2.32,3.08s.36,3.16,2.32,3.07c.58-.03,1.76-.29,2-.34l.04,.67Z"></path><path class="cls-1" d="M221.3,60.95v-10h.95v5.65h1.28l2.74-2.8h1.09l-3.13,3.24,3.11,3.9h-1.07l-2.74-3.46h-1.28v3.46h-.95Z"></path><path class="cls-1" d="M230.35,53.87c.84-.09,1.76-.19,2.57-.19,1.71,0,2.49,.8,2.49,2.27v4.53c-.86,.28-1.99,.6-3.42,.6-1.34,0-2.19-.74-2.19-2.13,0-1.22,.68-1.95,2.35-2.1l2.32-.22v-.7c0-1.12-.52-1.58-1.55-1.58-.7,0-1.58,.08-2.44,.17l-.13-.66Zm4.11,3.42l-2.22,.19c-1.1,.1-1.47,.63-1.47,1.47,0,.91,.47,1.47,1.24,1.48,.94,0,1.88-.22,2.44-.38v-2.77Z"></path><path class="cls-1" d="M238.84,62.38c.73,.17,1.82,.4,2.63,.4,1.55,0,1.92-.69,1.95-2.27-.47,.15-1.24,.35-2.04,.35-2.3,0-2.87-1.13-2.87-3.32,0-2.62,.71-3.85,3.78-3.85,.72,0,1.51,.06,2.08,.1v6.13c0,2.27-.37,3.5-2.88,3.51-.95,0-2.16-.26-2.81-.43l.16-.61Zm4.58-8c-.37-.02-.89-.05-1.19-.04-2.4,0-2.74,1.01-2.74,3.18,0,1.84,.32,2.71,1.89,2.71,.8,0,1.57-.2,2.04-.35v-5.49Z"></path><path class="cls-1" d="M247.95,51.03h.95v.97h-.95v-.97Zm0,2.79h.95v7.14h-.95v-7.14Z"></path><path class="cls-1" d="M252.29,54.3c1.11-.42,1.96-.62,2.99-.62,2.28,0,3.1,1.13,3.1,3.55v3.73h-.98v-3.73c0-2.05-.54-2.9-2.12-2.9-.8,0-1.57,.2-2.05,.35v6.27h-.95v-6.65Z"></path><path class="cls-1" d="M261.82,62.38c.73,.17,1.82,.4,2.63,.4,1.55,0,1.92-.69,1.95-2.27-.47,.15-1.24,.35-2.04,.35-2.3,0-2.87-1.13-2.87-3.32,0-2.62,.71-3.85,3.78-3.85,.72,0,1.5,.06,2.08,.1v6.13c0,2.27-.37,3.5-2.89,3.51-.95,0-2.15-.26-2.8-.43l.16-.61Zm4.58-8c-.37-.02-.89-.05-1.19-.04-2.4,0-2.74,1.01-2.74,3.18,0,1.84,.32,2.71,1.89,2.71,.8,0,1.57-.2,2.04-.35v-5.49Z"></path></g></g></g></svg>