<svg xmlns="http://www.w3.org/2000/svg" id="Layer_2" data-name="Layer 2" viewBox="0 0 190.47 55.84"><defs><style>      .cls-1 {        fill: #fff;      }    </style></defs><g id="Layer_1-2" data-name="Layer 1"><g><path class="cls-1" d="M29.12,.13c-4.32-.65-8.62,1.25-11.25,4.57,4.3,.57,8.65-1.23,11.25-4.57"></path><path class="cls-1" d="M43.73,4.71C41.13,1.37,36.81-.51,32.5,.12c2.59,3.35,6.95,5.14,11.23,4.59"></path><path class="cls-1" d="M47.31,6.92c-2.61-.78-5.38-.56-7.94,.29,3.33,2.77,8.04,3.37,12.15,2.08-.66-4.15-3.73-7.67-7.79-9.07,.37,2.56,1.6,4.94,3.58,6.69"></path><path class="cls-1" d="M22.26,7.16c-2.59-.76-5.34-1.02-7.96-.26,1.97-1.75,3.2-4.13,3.61-6.68-4.06,1.38-7.19,4.9-7.79,9.05,4.11,1.31,8.84,.7,12.14-2.11"></path><path class="cls-1" d="M15.31,11.23c-2.75,.25-5.4,1.19-7.56,2.87,1.07-2.39,1.19-5.1,.36-7.58-2.99,2.96-4.58,7.32-3.39,11.4,4.51,.1,8.56-2.92,10.59-6.7"></path><path class="cls-1" d="M46.32,11.22c1.95,3.91,6.07,6.52,10.5,6.88,1.21-4.11-.17-8.76-3.5-11.56-.53,2.54-.5,5.19,.5,7.62-2.06-1.83-4.78-2.65-7.5-2.95"></path><path class="cls-1" d="M128.05,22.79c-1.61-.05-1.78-2.05-2.99-2.56-.38,1.12-.65,2.28-.95,3.43,2.68,1.38,6.19,1.42,8.74-.27,2.15-1.41,2.73-4.74,.88-6.58-1.58-1.77-4.11-2.27-5.8-3.87-1.16-1.25-.06-3.42,1.65-3.36,1.63-.25,2.56,1.26,3.46,2.29,.38-.97,.81-1.94,1.03-2.96-2.35-1.52-5.79-1.71-8.06,.03-2.12,1.6-2.29,5-.42,6.84,1.78,1.53,4.34,2.09,5.73,4.06,.64,1.87-1.45,3.53-3.28,2.95"></path><path class="cls-1" d="M158.8,21.82c-1.26,1.24-3.4,1.64-4.88,.55-4.03-2.79-3.98-9.75,.24-12.34,1.61-.99,3.77-.36,4.93,.98,2.69,2.99,2.59,7.98-.3,10.8m-5.19-13.79c-3.07,.8-5.49,3.4-6.16,6.4-1.27,4.93,2.86,10.35,8.14,10.39,5.11,.36,9.62-4.42,8.97-9.32-.26-5.08-5.91-9.02-10.96-7.47"></path><path class="cls-1" d="M190.32,18.14c-1.08-2.66-4.27-3.29-6.37-4.93-1.48-1.14-.51-3.67,1.38-3.63,1.63-.28,2.54,1.24,3.42,2.27,.42-.95,.81-1.92,1.2-2.88-2.39-1.52-5.86-1.83-8.18-.03-2.11,1.61-2.3,4.97-.44,6.82,1.74,1.54,4.33,2.07,5.67,4.04,.83,1.87-1.43,3.61-3.26,2.97-1.56-.08-1.72-1.98-2.93-2.55-.43,1.17-.65,2.39-.83,3.61,2.93,1.15,6.75,1.32,9.2-.91,1.43-1.17,1.42-3.15,1.14-4.79"></path><path class="cls-1" d="M72.59,24.33c1.05,0,2.11,0,3.16,.01,.02-5.44,0-10.88,.02-16.32h-3.19c.03,5.44,.01,10.88,.01,16.31"></path><path class="cls-1" d="M91.28,19.16c-3.41-3.71-6.81-7.43-10.2-11.15-.75,0-1.5,0-2.25,.01,.02,5.43,.02,10.87,0,16.3,.74,0,1.49,0,2.23,.01,.01-3.69-.02-7.38,.02-11.07,3.37,3.71,6.79,7.38,10.18,11.07,.73-.01,1.47-.02,2.2-.03-.01-5.43,0-10.86,0-16.29-.74,0-1.48,0-2.21,0,.03,3.72,0,7.43,.03,11.14"></path><path class="cls-1" d="M107.89,8.02c-1.43,3.93-2.87,7.86-4.26,11.8-1.41-3.95-3.02-7.82-4.4-11.77-1.36-.02-2.73-.03-4.09-.03,2.14,5.42,4.28,10.85,6.37,16.29,.83,.01,1.66,.02,2.49,.03,2.16-5.44,4.27-10.9,6.49-16.32-.87,0-1.74,0-2.6,0"></path><path class="cls-1" d="M122.31,22.22c-2.37,.04-4.74,.03-7.1,.02,0-1.75,0-3.51,0-5.26,2.35,0,4.7,0,7.04,0,0-.73,0-1.47,0-2.21-2.35,0-4.7,0-7.04,.01,0-1.53,0-3.07,0-4.6,2.37,0,4.74,0,7.11,.02,0-.55,.01-1.63,.02-2.18-3.44,0-6.88,.01-10.32-.01,.03,5.44,0,10.89,.02,16.32,3.43-.03,6.87,0,10.3,0-.01-.7-.02-1.41-.02-2.11"></path><path class="cls-1" d="M140.29,10.19c-.02,4.71-.01,9.43-.01,14.15,1.09,0,2.18,0,3.26,0-.02-4.71,0-9.43-.02-14.15,1.48,0,2.95,0,4.43,0,0-.72-.01-1.44-.02-2.16-4.02,0-8.05,.01-12.08,0,0,.72,0,1.45,.01,2.18,1.47-.02,2.94-.02,4.41-.02"></path><path class="cls-1" d="M172.64,15.7c-.94,.25-1.93,.22-2.88,.29-.01-2.06-.01-4.13,0-6.19,1.07,.09,2.21-.04,3.24,.34,2.02,1.19,1.83,4.66-.36,5.57m1.57,1.57c1.01-.52,2.13-.97,2.87-1.86,1.77-2.03,1.17-5.81-1.55-6.76-2.93-1.08-6.15-.48-9.21-.61,.02,5.42,.01,10.84,0,16.26,1.15,.02,2.29,.03,3.44,.04,0-2.39-.06-4.79,.05-7.18,2.16,2.09,3.33,4.92,5.35,7.12,1.32,.12,2.66,.05,3.99,.06-1.67-2.34-3.27-4.72-4.93-7.07"></path><path class="cls-1" d="M10.39,17.81c-2.53,1.32-4.74,3.25-5.9,5.85-.03-2.7-.96-5.39-2.89-7.38C-.11,20.33,.5,25.12,3.39,28.51c3.98-2.19,6.8-6.2,7-10.7"></path><path class="cls-1" d="M51.24,17.86c.2,4.47,3.01,8.52,7.03,10.64,2.8-3.46,3.51-8.27,1.66-12.3-1.69,2.11-2.85,4.66-2.76,7.39-1.29-2.47-3.37-4.48-5.92-5.72"></path><path class="cls-1" d="M6.38,38.46c2.94-3.46,3.77-8.36,2.13-12.55-1.75,2.18-2.88,4.78-3.05,7.55-1.08-2.45-3.12-4.3-5.43-5.66-.35,4.45,2.53,8.46,6.35,10.66"></path><path class="cls-1" d="M56.24,33.42c-.34-2.72-1.36-5.33-3.11-7.51-1.69,4.16-.83,9.03,2.01,12.51,4.02-2.09,6.61-6.26,6.63-10.69-2.4,1.28-4.57,3.13-5.54,5.68"></path><path class="cls-1" d="M142.64,46.08c-1.29,.95-3.13,.88-4.38-.08-3.96-2.92-3.73-9.98,.7-12.36,1.94-1,4.21,.23,5.26,1.88,2.13,3.23,1.76,8.21-1.58,10.56m-4.16-14.4c-4.53,.98-7.58,5.78-6.5,10.16,.82,4.37,5.57,7.53,10.08,6.59,4.73-.74,8.08-5.83,6.84-10.3-.89-4.44-5.86-7.57-10.42-6.45"></path><path class="cls-1" d="M72.6,31.72c-.02,5.44,0,10.88,0,16.31,1.05,0,2.1,.01,3.15,.02,0-5.44,.01-10.89,0-16.33-1.05,0-2.1,0-3.14,0"></path><path class="cls-1" d="M91.27,31.88c0,3.67-.01,7.34,0,11.01-3.34-3.68-6.71-7.32-10.05-11-.79,0-1.58-.01-2.36-.02,0,5.39,0,10.78,0,16.16,.74,0,1.48,0,2.21,.02,.02-3.68,0-7.36,.02-11.04,3.25,3.5,6.45,7.03,9.7,10.53,.63,.81,1.8,.43,2.69,.54,0-5.39-.01-10.79,0-16.18-.73-.01-1.47-.02-2.2-.03"></path><path class="cls-1" d="M112.27,38.68c-1.11,1.38-3.13,.8-4.69,.99,0-2.06,0-4.12,.02-6.18,1.28,.07,2.6-.05,3.85,.32,1.83,.86,1.81,3.4,.82,4.87m-.02-6.74c-2.62-.17-5.26,.05-7.88-.16-.06,5.46-.01,10.92-.03,16.38,1.08,0,2.16,0,3.25,0,0-2.32-.02-4.64,.04-6.96,2.51,0,5.42,.33,7.44-1.44,1.43-1.12,1.67-3.06,1.36-4.71-.47-1.79-2.33-2.99-4.17-3.11"></path><path class="cls-1" d="M122.13,46.01c-.03-1.78-.03-3.55,.01-5.33,2.42,.22,4.84,.06,7.27,0-.01-.71-.02-1.42-.02-2.13-2.42,0-4.85,0-7.28,.02,0-1.52,0-3.03,0-4.55,2.45,0,4.9,0,7.35,0,0-.72,0-1.44,0-2.16-3.53,.03-7.06,.02-10.58,0-.02,5.43,0,10.86-.01,16.29,3.53,.02,7.07,0,10.6,0-.01-.73-.02-1.47-.02-2.21-2.44,0-4.88-.02-7.32,.05"></path><path class="cls-1" d="M169.15,45.97c-.07-4.68,.16-9.37-.11-14.05-1.08-.08-2.16-.03-3.25,0,.01,5.4,0,10.79,0,16.19,3.56,.13,7.13,.04,10.7,.07-.01-.74-.02-1.48-.02-2.22-2.44,0-4.88,0-7.32,.02"></path><path class="cls-1" d="M178.68,48.17c3.54,0,7.09,0,10.63,0-.01-.73-.01-1.47-.02-2.2-2.45,0-4.9,0-7.36,0,0-1.73,0-3.45,0-5.18,2.45,.06,4.9,.08,7.35-.14-.02-.52-.04-1.56-.05-2.09-2.43,0-4.86-.01-7.28,0,0-1.51,0-3.03-.02-4.54,2.47,.02,4.95,0,7.42,.02,0-.72,0-1.44,.02-2.16-3.56,.02-7.12,0-10.68,.02,0,5.42,0,10.85,0,16.27"></path><path class="cls-1" d="M158.59,39.32c-1.24,.47-2.63,.25-3.93,.35,0-2.06-.01-4.12,.01-6.17,1.56,.17,3.54-.36,4.72,.93,1.09,1.45,.87,3.92-.8,4.89m2.33-7c-3.06-.93-6.33-.4-9.47-.54-.06,5.46-.03,10.92-.03,16.39,1.08,0,2.16,0,3.25,0,0-2.32-.02-4.64,.02-6.95,2.4-.05,5.1,.3,7.16-1.18,2.73-1.82,2.39-6.67-.93-7.72"></path><path class="cls-1" d="M51.38,33.89c-3.08,3.26-4.56,7.97-3.2,12.28,4.45-.42,8.53-3.07,10.37-7.06-2.77,.13-5.42,1.09-7.54,2.82,1.11-2.55,1.24-5.41,.37-8.04"></path><path class="cls-1" d="M10.06,33.92c-.56,2.67-.57,5.46,.47,8.03-2.07-1.76-4.72-2.68-7.44-2.88,1.74,4.08,5.94,6.65,10.37,7.11,1.21-4.3,0-9.2-3.4-12.27"></path><path class="cls-1" d="M14.94,40.35c.43,2.82,1.72,5.5,3.84,7.51-2.74-.93-5.68-.73-8.39,.18,3.45,3.06,8.56,4.11,12.95,2.47-.84-4.49-3.98-8.48-8.39-10.16"></path><path class="cls-1" d="M42.8,47.87c2.17-1.98,3.42-4.69,3.86-7.52-4.42,1.7-7.56,5.68-8.38,10.19,4.4,1.62,9.47,.54,12.94-2.48-2.72-.92-5.68-1.13-8.42-.19"></path><path class="cls-1" d="M32.88,50.08c-4.52,.44-8.47,3.46-13.15,2.97,.85,.61,1.66,1.44,2.75,1.58,4.51,.65,8.54-2.74,13.06-1.78,2.14,.31,3.79,1.75,5.43,2.99-.19-3.87-4.51-5.96-8.09-5.76"></path></g></g></svg>