<svg xmlns="http://www.w3.org/2000/svg" id="Layer_2" data-name="Layer 2" viewBox="0 0 75.54 75.54"><defs><style>      .cls-1, .cls-2 {        fill: #fff;      }      .cls-3 {        fill: none;        stroke: #fff;        stroke-miterlimit: 10;      }      .cls-3, .cls-2, .cls-4 {        fill-rule: evenodd;      }      .cls-4 {        fill: #013945;      }    </style></defs><g id="Layer_1-2" data-name="Layer 1"><g><path class="cls-3" d="M37.77,.5c20.58,0,37.27,16.69,37.27,37.27s-16.69,37.27-37.27,37.27S.5,58.36,.5,37.77,17.19,.5,37.77,.5h0Z"></path><path class="cls-2" d="M35.87,62.26l-3.41-2.72c-.23-.19-.99-.75-1.11-.92-.27,.13-1.83,1.43-2.04,1.68l.94,1.01c.32,.35,.7,.67,1.01,1.03,.63,.71,1.31,1.37,1.96,2.07l3.99,4.11,1.03-2.23c.37-.75,.75-1.41,1.17-2.12,1.25-2.11,2.56-3.99,4.02-5.89,.48-.63,1.01-1.23,1.5-1.84l1.56-1.73c.55-.62,1.11-1.11,1.66-1.68-.15-.34-.3-.84-.48-1.12-.53,.31-1.13,.73-1.62,1.06-1.02,.68-3.74,2.78-4.67,3.69-.47,.46-1.04,.85-1.46,1.33l-2.07,2.08c-.24,.27-.41,.45-.68,.74l-1.28,1.47h0Z"></path><path class="cls-2" d="M32.43,20.22h1.62c0-1.13-.04-5.86,.03-6.6l1.97,6.59h1.34c.15-.63,1.9-6.4,2.04-6.64,.06,1.84,0,4.69,0,6.64h1.92V12.02h-2.91c-.18,.05-.16,.17-.27,.55l-1.32,4.28c-.32-.75-1.28-4.75-1.51-4.83h-2.93v8.19h0Z"></path><path class="cls-2" d="M43.47,17.67l-1.79,.39c.61,3.27,6.88,3.03,6.69-.57-.15-2.84-4-2.06-4.34-3.11-.33-1,1.2-1.12,1.82-.82,.36,.17,.49,.44,.66,.82l1.62-.53c-.39-1.42-1.97-2.21-3.8-1.88-2.39,.42-3.4,3.66-.57,4.74,.78,.3,3.26,.41,2.54,1.64-.16,.27-.58,.44-1.04,.46-1,.05-1.58-.34-1.8-1.14h0Z"></path><path class="cls-2" d="M31.98,19.82l-1.01-1.21c.53-.89,.96-1.63,.82-3.02-.21-2.1-2-3.76-4.18-3.77-3.63-.01-5.49,4.2-3.34,6.84,.99,1.22,2.52,1.88,4.22,1.52,.65-.14,.94-.39,1.41-.56,.21,.16,.42,.42,.54,.61h1.87c-.12-.19-.18-.22-.33-.4Zm-2.2-2.63c-.35-.22-.43-.61-.8-.75-.27,.29-.93,.77-1.04,1,.25,.28,.5,.45,.7,.8-.85,.56-2.33,.23-3.06-.81-1.56-2.22,1.31-4.99,3.48-3.35,.38,.29,.7,.66,.89,1.28,.23,.76,.06,1.19-.16,1.83Z"></path><path class="cls-2" d="M49.5,9.98c-2.25,.55-1.41,3.83,.78,3.29,.79-.19,1.46-1.02,1.24-2.03-.17-.79-1-1.51-2.02-1.26h0Z"></path><path class="cls-4" d="M49.6,11.9c-.39-.21-.29-.44-.69-.24,.07,.27,.58,.74,.82,.91,.2-.27,.33-.6,.53-.87,.15-.2,.6-.69,.61-.78-.12-.05-.15-.04-.35,.11-.13,.1-.22,.19-.34,.28-.25,.21-.38,.35-.58,.59h0Z"></path><polygon class="cls-1" points="13.37 26.19 11.3 26.19 11.3 35.07 13.37 35.07 13.37 26.19 13.37 26.19"></polygon><path class="cls-1" d="M21.39,28.14c-.54-1.54-1.81-2.08-3.37-2.08-.82,0-1.58,.18-2.23,.72-.63,.53-.96,1.26-.96,2.08,0,1.94,1.55,2.41,3.13,2.73,.54,.12,1.55,.26,1.55,1s-.79,.96-1.39,.96c-.92,0-1.59-.32-1.85-1.26l-1.92,.44c.4,1.73,1.92,2.46,3.59,2.46,.89,0,1.86-.17,2.58-.72,.69-.53,1.1-1.36,1.1-2.23s-.44-1.62-1.17-2.1c-.62-.41-1.59-.6-2.32-.75-.5-.09-1.28-.25-1.28-.89,0-.69,.67-.83,1.23-.83,.79,0,1.27,.3,1.53,1.05l1.76-.58h0Z"></path><path class="cls-1" d="M26.34,35.2c1.2,0,2.25-.49,2.94-1.5,.57-.84,.84-2.07,.84-3.08,0-1.07-.32-2.33-.96-3.2-.71-.97-1.64-1.36-2.82-1.36-2.63,0-3.81,2.2-3.81,4.56,0,1.11,.28,2.27,.93,3.18,.7,.98,1.67,1.4,2.87,1.4h0Zm0-7.44c.65,0,1.02,.27,1.28,.87,.26,.6,.32,1.36,.32,2.01,0,.58-.06,1.32-.27,1.86-.23,.66-.62,1.01-1.33,1.01-1.46,0-1.63-1.77-1.63-2.89,0-.56,.08-1.32,.28-1.85,.25-.65,.63-1.01,1.35-1.01h0Z"></path><path class="cls-1" d="M35.24,33.05c.36,1.45,1.44,2.15,2.93,2.15,1.24,0,2.19-.47,2.85-1.54,.57-.93,.79-2.08,.79-3.17,0-2.27-.89-4.43-3.5-4.43-1.81,0-3.28,1.01-3.28,2.94,0,1.61,1.13,2.72,2.73,2.72,.83,0,1.46-.26,1.99-.92,0,.8-.08,1.68-.34,2.14-.25,.44-.67,.7-1.18,.7-.61,0-1.02-.35-1.18-.93l-1.83,.35h0Zm3.08-5.53c.75,0,1.33,.61,1.33,1.36s-.6,1.33-1.33,1.33-1.32-.56-1.32-1.33,.58-1.36,1.32-1.36h0Z"></path><path class="cls-1" d="M46.14,35.2c2.56,0,3.51-2.38,3.51-4.58s-.97-4.56-3.51-4.56-3.43,2.42-3.43,4.56,.93,4.58,3.43,4.58h0Zm.01-7.65c.7,0,1.05,.45,1.18,1.09,.13,.62,.17,1.45,.17,2.07,0,.57-.04,1.23-.16,1.79-.14,.66-.44,1.18-1.19,1.18-.7,0-1-.53-1.13-1.14-.14-.62-.16-1.28-.16-1.93,0-.93-.09-3.06,1.28-3.06h0Z"></path><path class="cls-1" d="M53.91,35.2c2.56,0,3.51-2.38,3.51-4.58s-.97-4.56-3.51-4.56-3.43,2.42-3.43,4.56,.93,4.58,3.43,4.58h0Zm.01-7.65c.7,0,1.05,.45,1.18,1.09,.13,.62,.17,1.45,.17,2.07,0,.57-.04,1.23-.16,1.79-.14,.66-.44,1.18-1.19,1.18-.7,0-1-.53-1.13-1.14-.14-.62-.16-1.28-.16-1.93,0-.93-.09-3.06,1.28-3.06h0Z"></path><path class="cls-1" d="M58.53,29.77l2.47-1.32v5.01h-2.69v1.61h7.18v-1.61h-2.46v-7.28h-1.5c-.66,.98-1.89,1.44-3,1.77v1.81h0Z"></path><path class="cls-1" d="M17.17,43.45h.91l.82,2.11h1.38l-.99-2.35c.57-.21,.92-.77,.92-1.37,0-.52-.24-1.04-.68-1.33-.41-.26-.89-.27-1.37-.27h-2.24v5.33h1.24v-2.11h0Zm0-2.28h.65c.23,0,.59-.03,.8,.1,.18,.11,.3,.33,.3,.54,0,.23-.11,.48-.31,.61-.23,.13-.5,.11-.76,.11h-.68v-1.36h0Z"></path><polygon class="cls-1" points="24.84 41.26 24.84 40.23 21.03 40.23 21.03 45.56 24.84 45.56 24.84 44.53 22.28 44.53 22.28 43.35 24.3 43.35 24.3 42.34 22.28 42.34 22.28 41.26 24.84 41.26 24.84 41.26"></polygon><path class="cls-1" d="M28.51,43.7c.03,.54-.34,.92-.89,.92-.87,0-1.06-.98-1.06-1.67s.13-1.8,1.01-1.8c.6,0,.89,.45,.94,.99l1.18-.16c-.16-1.13-.94-1.83-2.09-1.83-1.61,0-2.31,1.34-2.31,2.79s.64,2.7,2.21,2.7c.62,0,1.06-.21,1.45-.69l.18,.61h.57v-2.85h-2.19v.99h1.01Z"></path><polygon class="cls-1" points="31.93 40.23 30.69 40.23 30.69 45.56 31.93 45.56 31.93 40.23 31.93 40.23"></polygon><path class="cls-1" d="M36.75,41.4c-.33-.92-1.09-1.25-2.02-1.25-.49,0-.95,.11-1.34,.44-.38,.32-.57,.75-.57,1.25,0,1.17,.93,1.44,1.88,1.64,.33,.07,.93,.16,.93,.6s-.47,.57-.83,.57c-.55,0-.96-.19-1.11-.75l-1.15,.26c.24,1.04,1.15,1.48,2.15,1.48,.54,0,1.12-.1,1.55-.43,.41-.32,.66-.82,.66-1.34s-.26-.97-.7-1.26c-.37-.25-.96-.36-1.39-.45-.3-.05-.77-.15-.77-.54,0-.41,.4-.5,.74-.5,.47,0,.76,.18,.92,.63l1.06-.35h0Z"></path><polygon class="cls-1" points="41.2 40.23 37.27 40.23 37.27 41.29 38.63 41.29 38.63 45.56 39.87 45.56 39.87 41.29 41.2 41.29 41.2 40.23 41.2 40.23"></polygon><polygon class="cls-1" points="45.66 41.26 45.66 40.23 41.85 40.23 41.85 45.56 45.66 45.56 45.66 44.53 43.09 44.53 43.09 43.35 45.11 43.35 45.11 42.34 43.09 42.34 43.09 41.26 45.66 41.26 45.66 41.26"></polygon><path class="cls-1" d="M47.62,43.45h.91l.82,2.11h1.38l-.99-2.35c.57-.21,.92-.77,.92-1.37,0-.52-.24-1.04-.68-1.33-.41-.26-.89-.27-1.37-.27h-2.24v5.33h1.24v-2.11h0Zm0-2.28h.65c.23,0,.59-.03,.8,.1,.18,.11,.3,.33,.3,.54,0,.23-.11,.48-.31,.61-.23,.13-.5,.11-.76,.11h-.68v-1.36h0Z"></path><polygon class="cls-1" points="55.29 41.26 55.29 40.23 51.48 40.23 51.48 45.56 55.29 45.56 55.29 44.53 52.72 44.53 52.72 43.35 54.74 43.35 54.74 42.34 52.72 42.34 52.72 41.26 55.29 41.26 55.29 41.26"></polygon><path class="cls-1" d="M55.97,40.23v5.33h1.76c.75,0,1.41-.16,1.93-.74,.47-.54,.69-1.23,.69-1.94,0-.77-.25-1.51-.82-2.05-.58-.55-1.24-.6-2.01-.6h-1.55Zm1.24,.98h.43c.44,0,.76,.05,1.05,.43,.26,.33,.38,.78,.38,1.2,0,.4-.09,.81-.3,1.15-.29,.47-.62,.57-1.14,.57h-.42v-3.35h0Z"></path></g></g></svg>