<svg xmlns="http://www.w3.org/2000/svg" id="Layer_2" data-name="Layer 2" viewBox="0 0 58.68 58.68"><defs><style>      .cls-1 {        fill: none;        stroke: #139cd5;        stroke-linecap: round;        stroke-linejoin: round;        stroke-width: 3px;      }    </style></defs><g id="Layer_1-2" data-name="Layer 1"><g><circle class="cls-1" cx="29.34" cy="29.34" r="27.84"></circle><path class="cls-1" d="M38.24,28.18c0-4.91-3.99-8.9-8.9-8.9s-8.9,3.99-8.9,8.9c0,1.86,.57,3.78,1.44,5.63,1.32,2.79,2.16,5.78,2.6,8.83v.08c.36,2.41,2.42,4.2,4.86,4.2h0c2.43,0,4.5-1.79,4.85-4.2v-.08c.45-3.05,1.3-6.04,2.61-8.83,.87-1.84,1.44-3.76,1.44-5.62Z"></path><line class="cls-1" x1="23.94" y1="39.75" x2="34.74" y2="39.75"></line><g><line class="cls-1" x1="16.17" y1="32.19" x2="14.32" y2="32.77"></line><line class="cls-1" x1="16.26" y1="23.66" x2="14.41" y2="23.04"></line><line class="cls-1" x1="21.34" y1="16.81" x2="20.21" y2="15.23"></line><line class="cls-1" x1="29.47" y1="14.26" x2="29.49" y2="12.31"></line><line class="cls-1" x1="37.56" y1="16.97" x2="38.72" y2="15.41"></line><line class="cls-1" x1="42.5" y1="23.92" x2="44.36" y2="23.34"></line><line class="cls-1" x1="42.42" y1="32.45" x2="44.26" y2="33.06"></line></g></g></g></svg>