<svg xmlns="http://www.w3.org/2000/svg" xmlns:xlink="http://www.w3.org/1999/xlink" id="Layer_2_00000121245519909683180720000011498641235979273913_" x="0px" y="0px" viewBox="0 0 19.08 26.69" style="enable-background:new 0 0 19.08 26.69;" xml:space="preserve">
  <g id="Layer_1-2">
    <g>
      <path d="M9.55,26.68c-1.65,0-3.3-0.43-4.77-1.28c-2.94-1.69-4.77-4.86-4.77-8.26v-1c0-2,1.08-3.86,2.81-4.86 l3.04-1.76L5.67,9.34C4.64,8.3,4.07,6.93,4.07,5.47s0.57-2.84,1.61-3.87s2.41-1.61,3.87-1.61s2.84,0.57,3.87,1.61 c2.13,2.14,2.13,5.61,0,7.74l-0.19,0.19l2.96,1.71c0.03,0.01,0.06,0.03,0.09,0.05c1.73,1.01,2.81,2.87,2.81,4.86v1 c0,3.39-1.83,6.55-4.77,8.26C12.85,26.26,11.2,26.68,9.55,26.68z M9.54,1.99c-0.89,0-1.78,0.34-2.46,1.02 c-1.36,1.36-1.36,3.56,0,4.92L8.2,9.03c0.22,0.22,0.32,0.53,0.28,0.84c-0.04,0.31-0.22,0.58-0.49,0.74l-4.17,2.41 c-1.12,0.65-1.81,1.85-1.81,3.13v1c0,2.68,1.44,5.18,3.77,6.52c2.33,1.35,5.22,1.35,7.54,0c2.33-1.35,3.77-3.85,3.77-6.53v-1 c0-1.26-0.67-2.44-1.74-3.09c-0.03-0.01-0.05-0.03-0.08-0.04l-4.17-2.41c-0.27-0.16-0.45-0.43-0.49-0.74 c-0.04-0.31,0.06-0.62,0.28-0.84L12,7.92c1.36-1.36,1.36-3.56,0-4.92C11.33,2.33,10.44,1.99,9.54,1.99z" fill="white"></path>
    </g>
  </g>
</svg>
