<?xml version="1.0" encoding="UTF-8"?>
<svg id="Layer_2" data-name="Layer 2" xmlns="http://www.w3.org/2000/svg" viewBox="0 0 258.68 139.01">
  <defs>
    <style>
      .cls-1 {
        fill: #1b9bd5;
      }
    </style>
  </defs>
  <g id="Layer_1-2" data-name="Layer 1">
    <path class="cls-1" d="M253.9,70.43L134.13,1.28c-.29-.17-.59-.3-.89-.44-.07-.03-.14-.08-.22-.11-.51-.21-1.03-.36-1.56-.48-.14-.03-.28-.06-.42-.08-.56-.1-1.13-.17-1.7-.17s-1.14,.07-1.7,.17c-.14,.03-.28,.05-.42,.08-.53,.12-1.05,.27-1.56,.48-.07,.03-.14,.07-.22,.11-.3,.13-.6,.27-.89,.44L4.79,70.43c-2.96,1.71-4.79,4.87-4.79,8.29v60.29H258.68v-60.29c0-3.42-1.82-6.58-4.79-8.29Z"/>
  </g>
</svg>